<?xml version="1.0" encoding="utf-8"?>
<svg width="170" height="40" viewBox="5.32 2.128 170 40" xmlns="http://www.w3.org/2000/svg" xmlns:bx="https://boxy-svg.com"><defs><bx:guide x="45.892" y="10.737" angle="90"/><bx:guide x="43.764" y="26.31" angle="90"/><bx:export><bx:file format="svg" path="Unbetitelt 2.svg"/></bx:export></defs><path d="M 13 16 L 26.5 16 C 28.985 16 31 18.015 31 20.5 C 31 22.985 28.985 25 26.5 25 L 22 25" stroke-width="2.5" stroke-linecap="round" stroke-linejoin="round" fill="none" style="stroke-width: 2.5;"/><path d="M 7.75 16 C 7.75 15.31 8.31 14.75 9 14.75 L 22.5 14.75 C 23.998 14.805 25.594 15.462 26.566 16.434 C 27.538 17.406 28.25 19.002 28.25 20.5 C 28.25 21.998 27.538 23.594 26.566 24.566 C 25.594 25.538 23.998 26.196 22.5 26.25 L 18 26.25 C 17.31 26.25 16.75 25.69 16.75 25 C 16.75 24.31 17.31 23.75 18 23.75 L 22.5 23.75 C 23.487 23.805 24.141 23.455 24.798 22.798 C 25.455 22.141 25.75 21.487 25.75 20.5 C 25.75 19.513 25.455 18.859 24.798 18.202 C 24.141 17.545 23.487 17.195 22.5 17.25 L 9 17.25 C 8.31 17.25 7.75 16.69 7.75 16 Z" style="fill: rgb(37, 99, 235);"/><path d="M 17 12 L 13 16 L 17 20" stroke-width="2.5" stroke-linecap="round" stroke-linejoin="round" fill="none" style="stroke-width: 2.5;"/><path d="M 13.884 11.116 C 13.396 10.628 12.604 10.628 12.116 11.116 L 8.116 15.116 C 7.628 15.604 7.628 16.396 8.116 16.884 L 12.116 20.884 C 12.604 21.372 13.396 21.372 13.884 20.884 C 14.372 20.396 14.372 19.604 13.884 19.116 L 10.768 16 L 13.884 12.884 C 14.372 12.396 14.372 11.604 13.884 11.116 Z" style="fill: rgb(37, 99, 235);"/><path d="M 35.122 25.839 L 38.691 11.523 L 46.064 11.523 C 47.431 11.523 48.447 11.64 49.111 11.874 C 49.776 12.109 50.25 12.543 50.534 13.178 C 50.819 13.813 50.847 14.586 50.62 15.497 C 50.422 16.292 50.082 16.977 49.6 17.553 C 49.118 18.129 48.536 18.596 47.854 18.954 C 47.419 19.182 46.855 19.371 46.16 19.521 C 46.643 19.696 46.984 19.872 47.181 20.048 C 47.314 20.165 47.488 20.416 47.701 20.8 C 47.915 21.184 48.048 21.48 48.1 21.689 L 49.204 25.839 L 44.204 25.839 L 42.931 21.464 C 42.773 20.897 42.598 20.529 42.406 20.36 C 42.142 20.139 41.808 20.028 41.405 20.028 L 41.014 20.028 L 39.565 25.839 L 35.122 25.839 Z M 41.688 17.323 L 43.554 17.323 C 43.755 17.323 44.162 17.258 44.774 17.128 C 45.082 17.069 45.359 16.92 45.604 16.679 C 45.849 16.438 46.011 16.162 46.089 15.849 C 46.204 15.386 46.146 15.031 45.915 14.784 C 45.684 14.537 45.164 14.413 44.357 14.413 L 42.414 14.413 L 41.688 17.323 Z M 53.179 11.523 L 65.035 11.523 L 64.272 14.579 L 56.851 14.579 L 56.283 16.855 L 63.168 16.855 L 62.44 19.775 L 55.555 19.775 L 54.852 22.597 L 62.488 22.597 L 61.68 25.839 L 49.61 25.839 L 53.179 11.523 Z M 65.627 11.523 L 79.074 11.523 L 78.193 15.058 L 73.681 15.058 L 70.993 25.839 L 66.569 25.839 L 69.257 15.058 L 64.745 15.058 L 65.627 11.523 Z M 77.048 18.691 C 77.631 16.354 78.735 14.534 80.362 13.232 C 81.989 11.929 83.964 11.278 86.288 11.278 C 88.671 11.278 90.348 11.918 91.318 13.197 C 92.288 14.476 92.486 16.268 91.911 18.573 C 91.494 20.246 90.87 21.619 90.04 22.69 C 89.21 23.761 88.188 24.594 86.975 25.19 C 85.762 25.785 84.362 26.083 82.773 26.083 C 81.158 26.083 79.886 25.826 78.957 25.312 C 78.027 24.797 77.372 23.983 76.992 22.87 C 76.612 21.757 76.631 20.364 77.048 18.691 Z M 81.467 18.71 C 81.106 20.155 81.116 21.194 81.496 21.825 C 81.875 22.457 82.527 22.773 83.452 22.773 C 84.403 22.773 85.215 22.464 85.89 21.845 C 86.565 21.226 87.103 20.116 87.502 18.515 C 87.838 17.167 87.812 16.182 87.423 15.561 C 87.034 14.939 86.375 14.628 85.444 14.628 C 84.552 14.628 83.757 14.944 83.059 15.575 C 82.361 16.207 81.83 17.252 81.467 18.71 Z M 104.369 11.523 L 108.783 11.523 L 106.655 20.058 C 106.444 20.904 106.113 21.703 105.662 22.455 C 105.211 23.207 104.633 23.865 103.93 24.428 C 103.226 24.991 102.536 25.387 101.861 25.614 C 100.922 25.933 99.851 26.093 98.646 26.093 C 97.949 26.093 97.202 26.044 96.403 25.946 C 95.604 25.849 94.963 25.655 94.482 25.365 C 94.001 25.076 93.597 24.664 93.271 24.13 C 92.946 23.596 92.769 23.046 92.741 22.48 C 92.694 21.568 92.759 20.761 92.934 20.058 L 95.062 11.523 L 99.476 11.523 L 97.297 20.263 C 97.102 21.044 97.167 21.655 97.49 22.094 C 97.813 22.533 98.359 22.753 99.127 22.753 C 99.889 22.753 100.54 22.537 101.081 22.104 C 101.622 21.671 101.992 21.057 102.19 20.263 L 104.369 11.523 Z M 107.201 25.839 L 110.771 11.523 L 118.144 11.523 C 119.511 11.523 120.526 11.64 121.191 11.874 C 121.855 12.109 122.329 12.543 122.614 13.178 C 122.898 13.813 122.926 14.586 122.699 15.497 C 122.501 16.292 122.161 16.977 121.679 17.553 C 121.197 18.129 120.615 18.596 119.933 18.954 C 119.499 19.182 118.934 19.371 118.239 19.521 C 118.723 19.696 119.063 19.872 119.26 20.048 C 119.393 20.165 119.567 20.416 119.781 20.8 C 119.994 21.184 120.127 21.48 120.179 21.689 L 121.283 25.839 L 116.283 25.839 L 115.011 21.464 C 114.852 20.897 114.677 20.529 114.485 20.36 C 114.221 20.139 113.887 20.028 113.484 20.028 L 113.093 20.028 L 111.644 25.839 L 107.201 25.839 Z M 113.768 17.323 L 115.633 17.323 C 115.835 17.323 116.242 17.258 116.853 17.128 C 117.161 17.069 117.438 16.92 117.683 16.679 C 117.929 16.438 118.091 16.162 118.168 15.849 C 118.283 15.386 118.225 15.031 117.994 14.784 C 117.763 14.537 117.244 14.413 116.437 14.413 L 114.493 14.413 L 113.768 17.323 Z M 125.444 11.523 L 129.877 11.523 L 126.308 25.839 L 121.874 25.839 L 125.444 11.523 Z M 129.707 18.691 C 130.29 16.354 131.394 14.534 133.021 13.232 C 134.648 11.929 136.624 11.278 138.948 11.278 C 141.331 11.278 143.007 11.918 143.977 13.197 C 144.947 14.476 145.145 16.268 144.57 18.573 C 144.153 20.246 143.53 21.619 142.699 22.69 C 141.869 23.761 140.848 24.594 139.635 25.19 C 138.422 25.785 137.021 26.083 135.432 26.083 C 133.818 26.083 132.546 25.826 131.616 25.312 C 130.686 24.797 130.031 23.983 129.652 22.87 C 129.272 21.757 129.29 20.364 129.707 18.691 Z M 134.126 18.71 C 133.766 20.155 133.776 21.194 134.155 21.825 C 134.535 22.457 135.187 22.773 136.111 22.773 C 137.062 22.773 137.875 22.464 138.55 21.845 C 139.225 21.226 139.762 20.116 140.161 18.515 C 140.497 17.167 140.471 16.182 140.082 15.561 C 139.693 14.939 139.034 14.628 138.103 14.628 C 137.211 14.628 136.416 14.944 135.718 15.575 C 135.021 16.207 134.49 17.252 134.126 18.71 Z" style="fill: rgb(15, 23, 42); text-transform: uppercase; text-wrap-mode: nowrap;"/><circle cx="146.197" cy="23.81" r="2.5" fill="#2563eb" style="stroke-width: 1;"/><path d="M 149.197 23.81 C 149.197 24.603 148.834 25.416 148.318 25.931 C 147.803 26.446 146.989 26.81 146.197 26.81 C 145.404 26.81 144.591 26.447 144.076 25.931 C 143.561 25.416 143.197 24.602 143.197 23.81 C 143.197 23.017 143.56 22.204 144.076 21.689 C 144.591 21.174 145.405 20.81 146.197 20.81 C 146.99 20.81 147.803 21.173 148.318 21.689 C 148.833 22.204 149.197 23.018 149.197 23.81 Z M 147.611 22.396 C 147.222 22.007 146.785 21.81 146.197 21.81 C 145.609 21.81 145.172 22.006 144.783 22.396 C 144.394 22.785 144.197 23.222 144.197 23.81 C 144.197 24.398 144.393 24.835 144.783 25.224 C 145.172 25.613 145.609 25.81 146.197 25.81 C 146.785 25.81 147.222 25.614 147.611 25.224 C 148 24.835 148.197 24.398 148.197 23.81 C 148.197 23.222 148.001 22.785 147.611 22.396 Z" style="fill: none;"/></svg>